<svg width="24" height="25" viewBox="0 0 24 25" fill="none" xmlns="http://www.w3.org/2000/svg">
<path fill-rule="evenodd" clip-rule="evenodd" d="M5.46973 5.68256C5.76262 5.38967 6.2375 5.38967 6.53039 5.68256L18.5304 17.6825C18.8233 17.9754 18.8233 18.4503 18.5304 18.7432C18.2375 19.0361 17.7626 19.0361 17.4697 18.7432L5.46973 6.74322C5.17684 6.45033 5.17684 5.97545 5.46973 5.68256Z" fill="#717171"/>
<path fill-rule="evenodd" clip-rule="evenodd" d="M18.5304 5.68256C18.8233 5.97545 18.8233 6.45033 18.5304 6.74322L6.53033 18.7433C6.23744 19.0361 5.76256 19.0361 5.46967 18.7433C5.17678 18.4504 5.17678 17.9755 5.46967 17.6826L17.4697 5.68256C17.7626 5.38967 18.2375 5.38967 18.5304 5.68256Z" fill="#717171"/>
</svg>
