<svg width="25" height="25" viewBox="0 0 25 25" fill="none" xmlns="http://www.w3.org/2000/svg">
<path d="M17.3001 4.68943C17.8493 4.68929 18.2863 4.60197 18.6111 4.42751C18.9351 4.25279 19.2311 3.95729 19.4992 3.54104C19.4323 4.1473 19.2343 4.7338 18.9177 5.26361C18.6 5.794 18.1595 6.22379 17.5961 6.55301C17.032 6.88207 16.3765 7.0466 15.6296 7.0466C15.0529 7.04482 14.4796 6.96338 13.9274 6.80484C13.3559 6.64367 12.6617 6.4019 11.8446 6.07955C11.0692 5.78394 10.4173 5.55896 9.88863 5.40463C9.38562 5.25401 8.86177 5.17594 8.33446 5.17295C7.65754 5.17295 7.12537 5.32404 6.73799 5.62626C6.35033 5.92858 6.15651 6.36846 6.15651 6.94586C6.15594 7.49641 6.33917 7.94636 6.70626 8.29571C7.0728 8.64491 7.55209 8.81951 8.14416 8.81951C8.66545 8.81966 9.16589 8.68533 9.64547 8.41658L9.73006 8.5576C9.26485 9.04113 8.65164 9.28289 7.89041 9.28289C7.2132 9.28275 6.64579 9.04437 6.18824 8.56769C5.73006 8.09074 5.50098 7.46283 5.50098 6.68397C5.50112 6.05255 5.66678 5.44816 5.99791 4.87075C6.32861 4.29307 6.82552 3.82633 7.48866 3.47054C8.1512 3.11461 8.94767 2.93665 9.87809 2.93665C10.4603 2.93714 11.0399 3.01168 11.6014 3.15826C12.1723 3.30589 12.9019 3.5342 13.79 3.84324C14.607 4.12531 15.2731 4.33686 15.7882 4.47788C16.2792 4.6157 16.7882 4.68691 17.3001 4.68943Z" fill="#212529"/>
<path d="M14.8367 9.3795C15.1395 9.16459 15.4884 9.05715 15.8834 9.05715C16.2922 9.05701 16.6129 9.17117 16.8455 9.39963C17.0781 9.62796 17.1944 9.92346 17.1944 10.2861C17.1941 10.622 17.0743 10.9074 16.8349 11.1423C16.5947 11.3774 16.3198 11.4949 16.0102 11.4949C15.6995 11.495 15.4423 11.401 15.2384 11.2128C15.034 11.0247 14.9318 10.7829 14.9318 10.4876C14.9315 10.2189 15.002 10.004 15.1433 9.84287C14.8754 9.96363 14.6675 10.1584 14.5195 10.4271C14.3719 10.6942 14.2956 10.9917 14.2975 11.2934C14.2982 11.3744 14.3053 11.4552 14.3186 11.5352C14.7832 11.9648 15.1462 12.3947 15.4076 12.8246C15.6684 13.2544 15.7988 13.7514 15.7988 14.3155C15.7985 14.9467 15.6258 15.484 15.2807 15.9272C14.9353 16.3705 14.4243 16.8205 13.7477 17.277C13.2114 17.6264 12.8029 17.9356 12.5212 18.2648C12.2388 18.594 12.0349 18.905 11.908 19.3079C11.5697 18.7168 11.192 18.2841 10.7768 17.9887C10.3606 17.6933 9.87046 17.5751 9.30715 17.5751C8.65841 17.5751 8.1192 17.7401 7.68952 18.1297C7.259 18.5194 7.04458 19.0587 7.04458 19.6905C7.04063 20.1741 7.17989 20.6489 7.44636 21.0605C7.71394 21.4769 8.09806 21.8059 8.59878 22.0477C9.09922 22.2895 9.68776 22.4103 10.3644 22.4103C11.2522 22.4103 12.0417 22.1787 12.7327 21.7153C13.4232 21.2519 13.987 20.6374 14.4243 19.8718L14.6358 19.9726C14.4663 20.4692 14.1773 20.9461 13.7688 21.403C13.36 21.8596 12.849 22.229 12.2358 22.511C11.622 22.7931 10.9489 22.9342 10.2164 22.9342C9.45488 22.9336 8.7747 22.7758 8.17589 22.4607C7.58744 22.1549 7.09764 21.7022 6.75915 21.1511C6.41376 20.5935 6.24107 19.9589 6.24107 19.2473C6.24078 18.4682 6.40643 17.7697 6.73799 17.152C7.06925 16.5342 7.52036 16.054 8.0913 15.7115C8.65018 15.3723 9.29996 15.1939 9.96265 15.1978C11.2872 15.1978 12.4011 15.8265 13.3036 16.995C13.5151 16.6191 13.6208 16.2363 13.6208 15.8466C13.6208 15.3764 13.4939 14.9735 13.2402 14.6378C12.9861 14.3022 12.5914 13.8992 12.0561 13.429C11.4778 12.9185 11.0373 12.4551 10.7345 12.0389C10.4308 11.6226 10.2798 11.1121 10.2798 10.5077C10.2798 9.90331 10.4384 9.39222 10.7556 8.91554C11.0725 8.43873 11.4496 8.04922 11.8869 7.74702C12.3236 7.4448 12.7394 7.23325 13.1345 7.11238C12.8962 7.36487 12.6936 7.64595 12.5318 7.94848C12.3697 8.25056 12.2887 8.53597 12.2887 8.80473C12.2887 9.24795 12.4185 9.60798 12.6798 9.94361C12.9406 10.2794 13.3459 10.689 13.8957 11.1726C13.8954 10.8504 13.9765 10.5246 14.1389 10.1954C14.2956 9.87184 14.5356 9.59119 14.8367 9.3795Z" fill="#212529"/>
</svg>
