<svg width="24" height="24" viewBox="0 0 24 24" fill="none" xmlns="http://www.w3.org/2000/svg">
<circle cx="12" cy="12" r="10" stroke="#212529" stroke-width="1.5"/>
<path d="M10.9931 13.9202C10.9184 13.4509 10.9398 13.0349 11.0571 12.6722C11.1851 12.2989 11.3558 11.9629 11.5691 11.6642C11.7931 11.3656 12.0224 11.0882 12.2571 10.8322C12.4918 10.5656 12.6891 10.3042 12.8491 10.0482C13.0091 9.79224 13.0891 9.52024 13.0891 9.23224C13.0891 8.97624 13.0358 8.75224 12.9291 8.56024C12.8331 8.36824 12.6891 8.21891 12.4971 8.11224C12.3051 8.00558 12.0704 7.95224 11.7931 7.95224C11.4731 7.95224 11.1744 8.02691 10.8971 8.17624C10.6304 8.32558 10.3798 8.52824 10.1451 8.78424L9.12109 7.84024C9.47309 7.43491 9.88909 7.10424 10.3691 6.84824C10.8598 6.58158 11.4091 6.44824 12.0171 6.44824C12.5718 6.44824 13.0624 6.54958 13.4891 6.75224C13.9264 6.94424 14.2678 7.23758 14.5131 7.63224C14.7584 8.02691 14.8811 8.51758 14.8811 9.10424C14.8811 9.50958 14.7958 9.87224 14.6251 10.1922C14.4651 10.5122 14.2624 10.8109 14.0171 11.0882C13.7718 11.3656 13.5318 11.6429 13.2971 11.9202C13.0731 12.1976 12.8918 12.4962 12.7531 12.8162C12.6144 13.1362 12.5664 13.5042 12.6091 13.9202H10.9931ZM11.8091 17.5522C11.4784 17.5522 11.1958 17.4349 10.9611 17.2002C10.7371 16.9549 10.6251 16.6562 10.6251 16.3042C10.6251 15.9416 10.7371 15.6429 10.9611 15.4082C11.1958 15.1736 11.4784 15.0562 11.8091 15.0562C12.1504 15.0562 12.4331 15.1736 12.6571 15.4082C12.8918 15.6429 13.0091 15.9416 13.0091 16.3042C13.0091 16.6562 12.8918 16.9549 12.6571 17.2002C12.4331 17.4349 12.1504 17.5522 11.8091 17.5522Z" fill="#212529" stroke="#212529" stroke-width="0.1"/>
</svg>
