<svg width="24" height="25" viewBox="0 0 24 25" fill="none" xmlns="http://www.w3.org/2000/svg">
<path fill-rule="evenodd" clip-rule="evenodd" d="M22.75 12.6665C22.75 18.6036 17.9371 23.4165 12 23.4165C6.06294 23.4165 1.25 18.6036 1.25 12.6665C1.25 6.72944 6.06294 1.9165 12 1.9165C17.9371 1.9165 22.75 6.72944 22.75 12.6665ZM12 21.9165C17.1086 21.9165 21.25 17.7751 21.25 12.6665C21.25 7.55787 17.1086 3.41651 12 3.4165C6.89137 3.4165 2.75 7.55787 2.75 12.6665C2.75 17.7751 6.89137 21.9165 12 21.9165Z" fill="#212529"/>
<path fill-rule="evenodd" clip-rule="evenodd" d="M17.25 9.4165C17.25 10.7972 16.1307 11.9165 14.75 11.9165C13.7248 11.9165 12.8438 11.2995 12.458 10.4165H7C6.58579 10.4165 6.25 10.0807 6.25 9.6665C6.25 9.25229 6.58579 8.9165 7 8.9165H12.3C12.5316 7.77538 13.5405 6.9165 14.75 6.9165C16.1307 6.9165 17.25 8.03579 17.25 9.4165ZM15.75 9.4165C15.75 9.96879 15.3023 10.4165 14.75 10.4165C14.1977 10.4165 13.75 9.96879 13.75 9.4165C13.75 8.86422 14.1977 8.4165 14.75 8.4165C15.3023 8.4165 15.75 8.86422 15.75 9.4165Z" fill="#212529"/>
<path fill-rule="evenodd" clip-rule="evenodd" d="M6.25 15.4165C6.25 14.0358 7.36929 12.9165 8.75 12.9165C9.77516 12.9165 10.6562 13.5336 11.042 14.4165L16.5 14.4165C16.9142 14.4165 17.25 14.7523 17.25 15.1665C17.25 15.5807 16.9142 15.9165 16.5 15.9165L11.2 15.9165C10.9684 17.0576 9.95948 17.9165 8.75 17.9165C7.36929 17.9165 6.25 16.7972 6.25 15.4165ZM7.75 15.4165C7.75 14.8642 8.19772 14.4165 8.75 14.4165C9.30228 14.4165 9.75 14.8642 9.75 15.4165C9.75 15.9688 9.30228 16.4165 8.75 16.4165C8.19772 16.4165 7.75 15.9688 7.75 15.4165Z" fill="#212529"/>
</svg>
