<svg width="24" height="25" viewBox="0 0 24 25" fill="none" xmlns="http://www.w3.org/2000/svg">
<path fill-rule="evenodd" clip-rule="evenodd" d="M18 2.46301C15.9289 2.46301 14.25 4.14194 14.25 6.21301C14.25 6.54946 14.2943 6.87555 14.3774 7.18579L8.95107 9.89895C8.26454 9.02465 7.19786 8.46301 6 8.46301C3.92893 8.46301 2.25 10.1419 2.25 12.213C2.25 14.2841 3.92893 15.963 6 15.963C7.19786 15.963 8.26454 15.4014 8.95107 14.5271L14.3774 17.2402C14.2943 17.5505 14.25 17.8766 14.25 18.213C14.25 20.2841 15.9289 21.963 18 21.963C20.0711 21.963 21.75 20.2841 21.75 18.213C21.75 16.1419 20.0711 14.463 18 14.463C16.8021 14.463 15.7355 15.0246 15.0489 15.899L9.6226 13.1858C9.70569 12.8756 9.75 12.5495 9.75 12.213C9.75 11.8766 9.70569 11.5505 9.6226 11.2402L15.0489 8.52707C15.7355 9.40138 16.8021 9.96301 18 9.96301C20.0711 9.96301 21.75 8.28408 21.75 6.21301C21.75 4.14194 20.0711 2.46301 18 2.46301ZM15.75 6.21301C15.75 4.97037 16.7574 3.96301 18 3.96301C19.2426 3.96301 20.25 4.97037 20.25 6.21301C20.25 7.45565 19.2426 8.46301 18 8.46301C16.7574 8.46301 15.75 7.45565 15.75 6.21301ZM3.75 12.213C3.75 10.9704 4.75736 9.96301 6 9.96301C7.24264 9.96301 8.25 10.9704 8.25 12.213C8.25 13.4557 7.24264 14.463 6 14.463C4.75736 14.463 3.75 13.4557 3.75 12.213ZM18 15.963C16.7574 15.963 15.75 16.9704 15.75 18.213C15.75 19.4557 16.7574 20.463 18 20.463C19.2426 20.463 20.25 19.4557 20.25 18.213C20.25 16.9704 19.2426 15.963 18 15.963Z" fill="#212529"/>
</svg>
